<svg width="27.000000" height="27.000000" viewBox="0 0 27 27" fill="none" xmlns="http://www.w3.org/2000/svg" xmlns:xlink="http://www.w3.org/1999/xlink">
	<desc>
			Created with Pixso.
	</desc>
	<defs>
		<clipPath id="clip4_54">
			<rect id="dashicons:cart" rx="-0.375000" width="26.250000" height="26.250000" transform="translate(0.375000 0.375000)" fill="white" fill-opacity="0"/>
		</clipPath>
	</defs>
	<rect id="dashicons:cart" rx="-0.375000" width="26.250000" height="26.250000" transform="translate(0.375000 0.375000)" fill="#FFFFFF" fill-opacity="0"/>
	<g clip-path="url(#clip4_54)">
		<path id="Vector" d="M8.1 17.54L20.25 17.54C20.99 17.54 21.6 18.15 21.6 18.9C21.6 19.64 20.99 20.24 20.25 20.24L6.75 20.24C6 20.24 5.4 19.64 5.4 18.9L5.4 5.39L2.7 5.39C1.95 5.39 1.35 4.79 1.35 4.04C1.35 3.3 1.95 2.69 2.7 2.69L6.75 2.69C7.49 2.69 8.1 3.3 8.1 4.04L8.1 6.74L25.65 6.74L20.25 16.2L8.1 16.2L8.1 17.54ZM7.42 21.6C8.54 21.6 9.45 22.5 9.45 23.62C9.45 24.74 8.54 25.65 7.42 25.65C6.3 25.65 5.4 24.74 5.4 23.62C5.4 22.5 6.3 21.6 7.42 21.6ZM19.57 21.6C20.69 21.6 21.6 22.5 21.6 23.62C21.6 24.74 20.69 25.65 19.57 25.65C18.45 25.65 17.54 24.74 17.54 23.62C17.54 22.5 18.45 21.6 19.57 21.6Z" fill="#FFFFFF" fill-opacity="1.000000" fill-rule="nonzero"/>
	</g>
</svg>
