<svg width="77.910645" height="66.075439" viewBox="0 0 77.9106 66.0754" fill="none" xmlns="http://www.w3.org/2000/svg" xmlns:xlink="http://www.w3.org/1999/xlink">
	<desc>
			Created with Pixso.
	</desc>
	<defs>
		<clipPath id="clip4_26">
			<rect id="jumpman-seeklogo.com 1" rx="-0.305412" width="51.920101" height="51.920101" transform="translate(3.665031 0.305412)" fill="white" fill-opacity="0"/>
		</clipPath>
	</defs>
	<rect id="jumpman-seeklogo.com 1" rx="-0.305412" width="51.920101" height="51.920101" transform="translate(3.665031 0.305412)" fill="#FFFFFF" fill-opacity="0"/>
	<g clip-path="url(#clip4_26)">
		<path id="Vector" d="M31.92 9.06L31.92 8.93C31.92 8.31 32.12 7.77 32.51 7.28C32.9 6.8 33.41 6.56 34.02 6.56C34.63 6.56 35.18 6.76 35.66 7.15C36.14 7.55 36.41 8.07 36.45 8.73C36.49 9.38 36.3 9.93 35.86 10.37C35.42 10.81 34.9 11.03 34.28 11.03L33.89 11.16L34.02 11.35L33.89 12.08L33.63 14.18C33.71 14.27 33.76 14.35 33.76 14.44L33.49 15.75C33.41 15.93 33.32 16.06 33.23 16.15L33.1 16.67C32.93 17.37 32.77 17.94 32.64 18.38C32.51 18.82 32.4 19.17 32.31 19.43L32.31 19.69C32.22 20.13 32.16 20.48 32.12 20.74C32.07 21.01 31.92 21.45 31.66 22.06C31.48 22.41 31.48 22.98 31.66 23.77L31.79 23.9C31.79 24.16 31.9 24.47 32.12 24.82C32.33 25.17 32.44 25.47 32.44 25.74C32.53 27.49 32.4 28.97 32.05 30.2L32.31 30.99C33.36 31.51 33.67 32.08 33.23 32.7L33.89 32.96C34.94 33.48 35.68 33.94 36.12 34.34C36.56 34.73 37 35.15 37.43 35.58C37.78 35.67 38.05 35.8 38.22 35.98L38.62 36.11C40.45 37.34 42.29 38.82 44.13 40.58L44.66 40.97L44.66 41.1L44.53 41.36L44.92 41.63L45.05 41.63C45.31 41.8 45.49 41.89 45.58 41.89L45.71 41.89C45.8 41.89 45.88 41.84 45.97 41.76L46.23 41.63C46.41 41.45 46.58 41.32 46.76 41.23L47.28 41.23C47.37 41.23 47.37 41.28 47.28 41.36L46.76 41.63L46.1 42.41L47.02 42.41L47.94 42.54C48.2 42.46 48.42 42.37 48.6 42.28L49.25 41.89C49.52 41.8 49.78 41.89 50.04 42.15L50.17 42.15C50.26 42.24 50.22 42.37 50.04 42.54L48.47 43.99C48.03 44.34 47.63 44.56 47.28 44.65L45.58 45.83C45.49 45.92 45.4 45.92 45.31 45.83L44.92 45.3L44.66 44.78L44.33 44.32L43.93 43.79L43.61 43.4L43.34 43.07L42.82 42.68C42.64 42.68 42.47 42.63 42.29 42.54L40.59 41.23C40.32 41.23 40.02 41.1 39.67 40.84C38.35 39.7 37.48 39 37.04 38.74L36.25 38.21L34.68 37.95C34.15 37.86 33.45 37.6 32.57 37.16L31.52 36.64C30.82 36.29 30.34 36.11 30.08 36.11L29.55 35.85C29.2 35.76 28.94 35.67 28.77 35.58L28.5 35.32C28.33 35.32 28.15 35.37 27.98 35.45L25.35 36.77L22.07 38.21C21.19 38.91 20.36 39.48 19.57 39.92L18.13 40.58L15.9 42.15C15.72 42.33 15.55 42.33 15.37 42.15L15.11 42.41C14.85 42.5 14.67 42.54 14.58 42.54L14.06 42.81L14.06 43.07L13.8 43.07L13.53 43.46C13.36 43.81 13.18 44.01 13.01 44.06C12.83 44.1 12.72 44.16 12.68 44.25C12.64 44.34 12.59 44.41 12.55 44.45L12.28 44.71L11.89 44.97L11.3 44.91L10.51 45.04L9.99 45.17C9.55 45.26 9.2 45.19 8.94 44.97C8.67 44.76 8.45 44.43 8.28 43.99C8.1 43.73 8.19 43.51 8.54 43.33L8.67 43.2C8.76 43.11 8.89 43.07 9.07 43.07L9.86 43.07L10.91 42.68L11.43 42.54C11.43 42.37 11.48 42.24 11.56 42.15C11.65 42.06 11.78 42.02 11.96 42.02L11.96 41.89C11.87 41.71 11.83 41.54 11.83 41.36C11.74 41.19 11.72 41.06 11.76 40.97C11.8 40.88 11.85 40.84 11.89 40.84L11.96 40.84L12.09 41.23C12.18 41.67 12.31 41.8 12.48 41.63L12.61 41.36C12.7 41.19 12.83 41.1 13.01 41.1L13.27 41.36L13.53 41.1L13.4 40.97C13.4 40.88 13.44 40.84 13.53 40.84L14.06 40.31C14.5 39.79 15.02 39.31 15.63 38.87C16.86 37.9 18.17 37.16 19.57 36.64C20.01 36.2 20.49 35.98 21.02 35.98C21.37 35.37 21.89 34.71 22.59 34.01C23.21 33.57 23.64 33.26 23.91 33.09C24.08 32.74 24.3 32.56 24.56 32.56L24.7 32.56L24.96 32.3C25.13 32.21 25.26 32.13 25.35 32.04L25.35 31.38C25.35 30.94 25.4 30.59 25.48 30.33C25.57 30.07 25.79 29.94 26.14 29.94L26.67 29.41C26.49 29.06 26.4 28.67 26.4 28.23L26.27 28.23C26.1 27.97 26.01 27.7 26.01 27.44C25.75 27 25.57 26.65 25.48 26.39L25.09 26.39C25 26.65 24.78 26.83 24.43 26.92L24.3 27.18C23.95 27.79 23.64 28.25 23.38 28.56C23.12 28.87 22.64 29.24 21.94 29.67C21.5 30.11 21.19 30.59 21.02 31.12C20.93 31.38 20.93 31.64 21.02 31.91L20.89 32.17L21.02 32.17C21.02 32.35 21.06 32.43 21.15 32.43L21.28 32.43C21.46 32.52 21.54 32.63 21.54 32.76C21.54 32.89 21.41 32.94 21.15 32.89C20.89 32.85 20.69 32.76 20.56 32.63C20.43 32.5 20.32 32.43 20.23 32.43L19.84 32.83C19.66 33.09 19.49 33.2 19.31 33.16C19.14 33.11 19.09 33.05 19.18 32.96L19.31 32.83C19.4 32.65 19.4 32.56 19.31 32.56L18.26 32.83C18.17 32.91 18.06 32.91 17.93 32.83C17.8 32.74 17.82 32.65 18 32.56L18.65 32.3C18.65 32.21 18.61 32.17 18.52 32.17C18.17 32.35 17.82 32.39 17.47 32.3L16.82 32.17L16.68 32.04C16.68 31.95 16.73 31.91 16.82 31.91C17.17 31.99 17.6 31.95 18.13 31.78L19.05 31.38L20.1 30.2L20.23 29.94C20.58 29.24 20.95 28.6 21.35 28.03C21.74 27.46 22.16 27 22.59 26.65L22.73 26.13C22.9 25.78 23.08 25.47 23.25 25.21C23.43 24.95 23.64 24.6 23.91 24.16L24.3 23.63C24.65 23.11 25.05 22.85 25.48 22.85L25.88 22.45C25.96 22.36 26.01 22.23 26.01 22.06L26.27 21.8L26.14 21.66C25.61 21.23 25.35 20.83 25.35 20.48C25.26 19.87 25.46 19.34 25.94 18.91C26.42 18.47 26.91 18.27 27.39 18.32C27.87 18.36 28.24 18.51 28.5 18.77L28.77 19.04C28.85 19.04 28.9 19.08 28.9 19.17L29.42 19.43L29.42 19.83C29.6 20 29.69 20.13 29.69 20.22C29.86 19.96 30.12 19.65 30.47 19.3L31.13 17.2C31.13 16.85 31.22 16.5 31.39 16.15L31.66 15.75L31.66 15.49L32.05 13.92L32.31 13.92L32.71 12.34C32.79 12.08 32.79 11.77 32.71 11.42L32.18 10.11L31.92 9.06Z" fill="#FFFFFF" fill-opacity="1.000000" fill-rule="nonzero"/>
	</g>
	<path id="JORDAN" d="M25.94 60.78C25.94 64.34 23.99 66.07 19.49 66.07C14.98 66.07 13.04 64.36 13.04 60.78C13.04 57.22 14.98 55.52 19.49 55.52C23.99 55.52 25.94 57.23 25.94 60.78ZM5.46 55.66L12.6 55.66L12.6 60.78C12.6 64.34 10.65 66.07 6.45 66.07C2.22 66.07 0.29 64.36 0.29 60.78L4.1 60.78C4.1 61.88 4.5 62.85 6.45 62.85C8.4 62.85 8.79 61.86 8.79 60.78L8.79 58.89L5.46 58.89L5.46 55.66ZM34.45 55.66C36.78 55.66 38.38 57.3 38.38 59.59C38.38 61.09 37.69 62.32 36.56 62.98L38.38 65.92L33.86 65.92L32.44 63.52L30.2 63.52L30.2 65.92L26.39 65.92L26.39 55.66L34.45 55.66ZM38.81 55.66L46.44 55.66C48.91 55.66 51.24 57.3 51.24 60.79C51.24 64.28 48.91 65.92 46.44 65.92L38.81 65.92L38.81 55.66ZM64.38 65.92L60.19 65.92L59.48 64.08L55.12 64.08L54.41 65.92L50.22 65.92L54.47 55.66L60.13 55.66L64.38 65.92ZM74.09 61.72L74.09 55.66L77.91 55.66L77.91 65.92L72.92 65.92L68.49 59.87L68.49 65.92L64.68 65.92L64.68 55.66L69.67 55.66L74.09 61.72ZM57.3 58.3L56.11 61.44L58.49 61.44L57.3 58.3ZM16.85 60.78C16.85 61.88 17.25 62.85 19.49 62.85C21.73 62.85 22.13 61.86 22.13 60.78C22.13 59.71 21.75 58.74 19.49 58.74C17.23 58.74 16.85 59.69 16.85 60.78ZM33.72 58.89L30.2 58.89L30.2 60.29L33.72 60.29C34.1 60.29 34.57 60.29 34.57 59.59C34.57 58.89 34.1 58.89 33.72 58.89ZM42.62 62.7L45.26 62.7C46.08 62.7 47.43 62.7 47.43 60.79C47.43 58.89 46.08 58.89 45.26 58.89L42.62 58.89L42.62 62.7Z" fill="#FFFFFF" fill-opacity="1.000000" fill-rule="evenodd"/>
</svg>
