<svg width="22.853271" height="22.853271" viewBox="0 0 22.8533 22.8533" fill="none" xmlns="http://www.w3.org/2000/svg" xmlns:xlink="http://www.w3.org/1999/xlink">
	<desc>
			Created with Pixso.
	</desc>
	<defs/>
	<path id="Vector" d="M18.03 16.44L22.85 21.26L21.26 22.85L16.44 18.03C14.65 19.47 12.42 20.25 10.12 20.25C4.53 20.25 0 15.71 0 10.12C0 4.53 4.53 0 10.12 0C15.71 0 20.25 4.53 20.25 10.12C20.25 12.42 19.47 14.65 18.03 16.44ZM15.77 15.6C17.2 14.14 18 12.17 18 10.12C18 5.77 14.47 2.25 10.12 2.25C5.77 2.25 2.25 5.77 2.25 10.12C2.25 14.47 5.77 18 10.12 18C12.17 18 14.14 17.2 15.6 15.77L15.77 15.6Z" fill="#FFFFFF" fill-opacity="1.000000" fill-rule="nonzero"/>
</svg>
