<?xml version="1.0" encoding="utf-8"?><svg xmlns="http://www.w3.org/2000/svg" xmlns:xlink="http://www.w3.org/1999/xlink"><symbol viewBox="0 0 24 24" id="facebook" xmlns="http://www.w3.org/2000/svg"><path d="M13.397 20.997v-8.196h2.765l.411-3.209h-3.176V7.548c0-.926.258-1.56 1.587-1.56h1.684v-2.86A22.108 22.108 0 0014.201 3c-2.444 0-4.122 1.492-4.122 4.231v2.355H7.332v3.21h2.753v8.201h3.312z"/></symbol><symbol viewBox="0 0 24 24" id="instagram" xmlns="http://www.w3.org/2000/svg"><g clip-path="url(#ba)"><path d="M16.5 0h-9A7.5 7.5 0 000 7.5v9A7.5 7.5 0 007.5 24h9a7.5 7.5 0 007.5-7.5v-9A7.5 7.5 0 0016.5 0zm5.25 16.5a5.256 5.256 0 01-5.25 5.25h-9a5.256 5.256 0 01-5.25-5.25v-9A5.256 5.256 0 017.5 2.25h9a5.256 5.256 0 015.25 5.25v9z"/><path d="M12 6a6 6 0 100 12 6 6 0 000-12zm0 9.75A3.755 3.755 0 018.25 12 3.754 3.754 0 0112 8.25 3.754 3.754 0 0115.75 12 3.755 3.755 0 0112 15.75zm6.448-9.4a.8.8 0 100-1.599.8.8 0 000 1.599z"/></g><defs><clipPath id="ba"><path d="M0 0h24v24H0z"/></clipPath></defs></symbol><symbol viewBox="0 0 24 24" id="vk" xmlns="http://www.w3.org/2000/svg"><g clip-path="url(#ca)"><path fill-rule="evenodd" clip-rule="evenodd" d="M21.363 14.758s1.94 1.916 2.42 2.803c.01.013.016.027.021.042.196.327.244.584.148.774-.162.313-.71.47-.896.483h-3.43c-.239 0-.736-.062-1.34-.48-.462-.322-.922-.854-1.367-1.373-.665-.772-1.24-1.442-1.822-1.442a.656.656 0 00-.216.036c-.44.14-1 .767-1 2.439 0 .523-.412.82-.701.82h-1.571c-.535 0-3.322-.187-5.792-2.792C2.789 12.878.07 6.48.043 6.424c-.169-.414.186-.64.57-.64h3.464c.464 0 .615.28.72.533.123.289.577 1.446 1.32 2.745 1.206 2.115 1.946 2.975 2.538 2.975.11 0 .22-.028.316-.084.773-.425.63-3.185.593-3.753 0-.11-.001-1.233-.397-1.775-.283-.389-.766-.54-1.057-.595.078-.113.243-.286.456-.388.529-.264 1.485-.302 2.434-.302h.527c1.03.014 1.296.08 1.67.175.754.18.769.668.703 2.331-.02.476-.04 1.01-.04 1.64 0 .135-.006.285-.006.438-.023.853-.053 1.814.55 2.209a.492.492 0 00.26.074c.209 0 .834 0 2.53-2.91.744-1.285 1.32-2.8 1.36-2.915.033-.063.134-.242.256-.314a.575.575 0 01.283-.067h4.074c.444 0 .745.067.804.235.099.272-.019 1.104-1.879 3.62-.313.418-.588.78-.83 1.097-1.685 2.213-1.685 2.325.1 4.005z"/></g><defs><clipPath id="ca"><path d="M0 0h24v24H0z"/></clipPath></defs></symbol><symbol viewBox="0 0 24 24" id="youtube" xmlns="http://www.w3.org/2000/svg"><path d="M22.058 6.945a2.624 2.624 0 00-1.853-1.852C18.57 4.65 12 4.65 12 4.65s-6.57 0-8.205.443a2.625 2.625 0 00-1.852 1.852A27.098 27.098 0 001.5 12c-.01 1.695.137 3.388.443 5.055a2.625 2.625 0 001.852 1.853C5.43 19.35 12 19.35 12 19.35s6.57 0 8.205-.442a2.625 2.625 0 001.853-1.853A27.1 27.1 0 0022.5 12a27.1 27.1 0 00-.442-5.055zM9.9 15.15v-6.3L15.353 12 9.9 15.15z"/></symbol></svg>