<?xml version="1.0" encoding="utf-8"?><svg xmlns="http://www.w3.org/2000/svg" xmlns:xlink="http://www.w3.org/1999/xlink"><symbol viewBox="0 0 28 28" id="facebook" xmlns="http://www.w3.org/2000/svg"><path d="M27.334 14C27.334 6.636 21.364.667 14 .667 6.637.667.667 6.637.667 14c0 6.655 4.876 12.171 11.25 13.171v-9.317H8.532V14h3.385v-2.938c0-3.341 1.99-5.187 5.036-5.187 1.459 0 2.985.26 2.985.26v3.282h-1.681c-1.657 0-2.173 1.027-2.173 2.082V14h3.698l-.591 3.854h-3.107v9.317c6.374-1 11.25-6.516 11.25-13.171z"/></symbol><symbol viewBox="0 0 11 10" id="icon-arrow" xmlns="http://www.w3.org/2000/svg"><path fill-rule="evenodd" clip-rule="evenodd" d="M5.682.683a.625.625 0 01.885 0l3.75 3.75a.625.625 0 010 .885l-3.75 3.75a.626.626 0 11-.885-.885l3.31-3.307-3.31-3.308a.625.625 0 010-.885z"/><path fill-rule="evenodd" clip-rule="evenodd" d="M.5 4.876a.625.625 0 01.625-.625H9.25a.625.625 0 110 1.25H1.125A.625.625 0 01.5 4.876z"/></symbol><symbol viewBox="0 0 10 19" id="icon-facebook" xmlns="http://www.w3.org/2000/svg"><path d="M9.766.157v2.946H8.014c-.64 0-1.071.134-1.295.402-.223.268-.335.67-.335 1.205v2.11h3.27l-.435 3.303H6.384v8.471H2.97v-8.47H.123V6.82H2.97V4.387c0-1.384.387-2.457 1.161-3.22C4.904.404 5.934.023 7.222.023c1.093 0 1.941.045 2.544.134z" fill-rule="evenodd"/></symbol><symbol viewBox="0 0 189.473 189.473" id="icon-telegram" xmlns="http://www.w3.org/2000/svg"><path d="M152.531 179.476c-1.48 0-2.95-.438-4.211-1.293l-47.641-32.316-25.552 18.386a7.502 7.502 0 01-11.633-4.174l-12.83-48.622L4.821 93.928a7.501 7.501 0 01-.094-13.975l174.312-69.36a7.503 7.503 0 0110.282 8.408L159.898 173.38a7.499 7.499 0 01-7.367 6.096zm-47.669-48.897l42.437 28.785L170.193 39.24l-82.687 79.566 17.156 11.638c.069.043.135.089.2.135zm-35.327-6.401l5.682 21.53 12.242-8.809-16.03-10.874a7.478 7.478 0 01-1.894-1.847zM28.136 86.782l31.478 12.035a7.5 7.5 0 014.573 5.092l3.992 15.129a7.504 7.504 0 012.259-4.624L149.227 38.6 28.136 86.782z"/></symbol><symbol viewBox="0 0 28 28" id="instagram" xmlns="http://www.w3.org/2000/svg"><path fill-rule="evenodd" clip-rule="evenodd" d="M14 .667c-3.62 0-4.074.015-5.496.08-1.42.065-2.39.29-3.238.62a6.53 6.53 0 00-2.362 1.538 6.54 6.54 0 00-1.537 2.36c-.328.849-.555 1.82-.62 3.24C.683 9.924.667 10.377.667 14s.015 4.075.08 5.497c.065 1.42.29 2.39.62 3.237a6.53 6.53 0 001.538 2.362 6.543 6.543 0 002.361 1.538c.848.329 1.818.555 3.238.62 1.422.064 1.875.08 5.496.08 3.622 0 4.075-.016 5.497-.08 1.42-.066 2.39-.291 3.238-.621a6.532 6.532 0 002.361-1.538 6.541 6.541 0 001.538-2.36c.33-.849.555-1.819.62-3.238.065-1.422.08-1.876.08-5.497s-.015-4.075-.08-5.497c-.065-1.42-.29-2.39-.62-3.237a6.537 6.537 0 00-1.538-2.362 6.541 6.541 0 00-2.361-1.538c-.848-.328-1.82-.554-3.239-.62-1.42-.063-1.873-.08-5.496-.08zm0 2.402c3.56 0 3.983.014 5.389.078 1.3.06 2.005.275 2.475.46.623.24 1.067.53 1.534.996.466.466.755.91.996 1.533.183.47.4 1.176.46 2.476.064 1.406.077 1.828.077 5.388 0 3.56-.013 3.982-.077 5.389-.06 1.3-.276 2.005-.46 2.475a4.13 4.13 0 01-.996 1.533c-.43.443-.954.784-1.534.997-.47.183-1.176.4-2.475.46-1.406.063-1.828.077-5.389.077-3.56 0-3.982-.014-5.388-.078-1.3-.06-2.005-.275-2.476-.46a4.13 4.13 0 01-1.533-.996 4.132 4.132 0 01-.996-1.533c-.183-.47-.4-1.176-.46-2.476C3.083 17.983 3.07 17.56 3.07 14c0-3.56.013-3.982.077-5.388.06-1.3.276-2.006.46-2.476a4.13 4.13 0 01.996-1.533c.43-.443.954-.783 1.533-.997.47-.183 1.176-.4 2.476-.46C10.018 3.084 10.44 3.07 14 3.07z"/><path fill-rule="evenodd" clip-rule="evenodd" d="M14 18.449a4.449 4.449 0 110-8.897 4.449 4.449 0 010 8.897zm0-11.302a6.853 6.853 0 100 13.706 6.853 6.853 0 000-13.706zm8.848-.125a1.62 1.62 0 11-3.24 0 1.62 1.62 0 013.24 0z"/></symbol><symbol viewBox="0 0 20 16" id="mail" xmlns="http://www.w3.org/2000/svg"><path d="M1.5 16c-.4 0-.75-.15-1.05-.45-.3-.3-.45-.65-.45-1.05v-13C0 1.1.15.75.45.45.75.15 1.1 0 1.5 0h17c.4 0 .75.15 1.05.45.3.3.45.65.45 1.05v13c0 .4-.15.75-.45 1.05-.3.3-.65.45-1.05.45h-17zm17-13.125l-8.1 5.3c-.067.033-.13.063-.188.087A.539.539 0 0110 8.3a.539.539 0 01-.213-.038 3.544 3.544 0 01-.187-.087l-8.1-5.3V14.5h17V2.875zM10 6.95l8.4-5.45H1.625L10 6.95zM1.5 2.875v.175-.987.012V1.5v.575-.025 1-.175V14.5 2.875z"/></symbol><symbol viewBox="0 0 18 18" id="phone" xmlns="http://www.w3.org/2000/svg"><path d="M16.875 18c-2.033 0-4.054-.5-6.063-1.5C8.805 15.5 7 14.2 5.4 12.6S2.5 9.196 1.5 7.188C.5 5.178 0 3.157 0 1.125c0-.317.108-.583.325-.8C.542.108.808 0 1.125 0h3.5c.233 0 .438.08.612.237.175.159.288.371.338.638l.675 3.15c.033.233.03.446-.013.637a.963.963 0 01-.262.488l-2.5 2.525c.933 1.55 1.98 2.9 3.137 4.05a17.34 17.34 0 003.938 2.925l2.375-2.45c.167-.183.358-.313.575-.387.217-.075.433-.088.65-.038l2.975.65c.25.05.458.175.625.375.167.2.25.433.25.7v3.375c0 .317-.108.583-.325.8a1.087 1.087 0 01-.8.325zM2.725 6.3L4.75 4.25 4.175 1.5H1.5c0 .65.1 1.362.3 2.138.2.774.508 1.662.925 2.662zM16.5 16.5v-2.675l-2.575-.525-1.975 2.075c.683.317 1.425.575 2.225.775.8.2 1.575.317 2.325.35z"/></symbol><symbol viewBox="0 0 16 20" id="point" xmlns="http://www.w3.org/2000/svg"><path d="M8 9.75c.483 0 .896-.17 1.238-.512.341-.342.512-.755.512-1.238s-.17-.896-.512-1.237A1.686 1.686 0 008 6.25c-.483 0-.896.17-1.237.513A1.686 1.686 0 006.25 8c0 .483.17.896.513 1.238.341.341.754.512 1.237.512zm0 8.275c2.217-2.017 3.854-3.846 4.912-5.487C13.971 10.896 14.5 9.45 14.5 8.2c0-1.967-.63-3.575-1.887-4.825C11.354 2.125 9.817 1.5 8 1.5c-1.817 0-3.354.625-4.612 1.875C2.129 4.625 1.5 6.233 1.5 8.2c0 1.25.542 2.696 1.625 4.338 1.083 1.641 2.708 3.47 4.875 5.487zm.025 1.675a1.03 1.03 0 01-.325-.05.884.884 0 01-.275-.15c-2.483-2.183-4.342-4.208-5.575-6.075C.617 11.558 0 9.817 0 8.2c0-2.5.804-4.492 2.413-5.975C4.02.742 5.883 0 8 0c2.117 0 3.98.742 5.588 2.225S16 5.7 16 8.2c0 1.617-.617 3.358-1.85 5.225-1.233 1.867-3.092 3.892-5.575 6.075a.925.925 0 01-.262.15.836.836 0 01-.288.05z"/></symbol><symbol viewBox="0 0 28 28" id="telegram" xmlns="http://www.w3.org/2000/svg"><path fill-rule="evenodd" clip-rule="evenodd" d="M27.334 14c0 7.364-5.97 13.333-13.334 13.333C6.637 27.333.667 21.363.667 14 .667 6.636 6.637.667 14 .667c7.364 0 13.334 5.97 13.334 13.333zm-12.856-3.49c-1.297.54-3.889 1.656-7.776 3.35-.63.25-.961.496-.991.736-.051.406.457.566 1.149.783l.291.093c.681.221 1.597.48 2.073.49.432.01.914-.168 1.446-.534 3.632-2.451 5.506-3.69 5.624-3.717.083-.019.198-.043.276.027.078.069.07.2.062.235-.05.215-2.045 2.07-3.077 3.03-.322.298-.55.51-.597.559-.104.109-.21.211-.313.31-.633.61-1.107 1.067.026 1.813.545.36.98.656 1.415.952.474.323.948.646 1.56 1.047.157.102.306.209.45.312.553.394 1.05.748 1.663.692.356-.033.724-.368.911-1.367.442-2.362 1.31-7.478 1.51-9.587a2.354 2.354 0 00-.022-.524.562.562 0 00-.19-.361c-.16-.13-.406-.157-.516-.156-.502.01-1.271.277-4.974 1.817z"/></symbol><symbol viewBox="0 0 28 23" id="twitter" xmlns="http://www.w3.org/2000/svg"><path d="M27.334 2.9c-.98.434-2.034.728-3.142.86A5.486 5.486 0 0026.597.733a10.922 10.922 0 01-3.474 1.327 5.472 5.472 0 00-9.464 3.746c0 .428.05.843.142 1.245A15.536 15.536 0 012.524 1.334a5.475 5.475 0 001.693 7.305 5.458 5.458 0 01-2.478-.685v.07a5.474 5.474 0 004.39 5.366 5.51 5.51 0 01-2.472.093 5.474 5.474 0 005.111 3.799 10.978 10.978 0 01-6.795 2.343c-.442 0-.877-.026-1.306-.077a15.473 15.473 0 008.385 2.458c10.065 0 15.568-8.336 15.568-15.566 0-.234-.006-.472-.017-.707a11.124 11.124 0 002.728-2.83l.003-.003z"/></symbol></svg>