<svg width="47.049179" height="50.383057" viewBox="0 0 47.0492 50.3831" fill="none" xmlns="http://www.w3.org/2000/svg" xmlns:xlink="http://www.w3.org/1999/xlink">
	<desc>
			Created with Pixso.
	</desc>
	<defs/>
	<path id="Vector" d="M29.17 49.48C29.09 49.48 29.04 49.53 29.04 49.62L29.04 49.76C29.04 49.85 29.09 49.9 29.17 49.9L46.84 49.9C46.98 49.9 47.04 49.85 47.04 49.76L47.04 49.62C47.04 49.53 46.98 49.48 46.84 49.48L44.77 49.48C43.39 49.48 42.4 49.23 41.82 48.73C41.29 48.22 40.84 47.4 40.49 46.25C38.25 39.2 36.18 32.14 34.26 25.08C32.34 18.03 30.45 10.92 28.57 3.78C28.3 2.81 28.3 2.01 28.57 1.37C28.84 0.73 29.46 0.41 30.45 0.41L34.46 0.41C34.6 0.41 34.66 0.34 34.66 0.2L34.66 0.13C34.66 0.04 34.6 0 34.46 0L7.69 0C7.51 0 7.42 0.04 7.42 0.13L7.42 0.2C7.42 0.34 7.51 0.41 7.69 0.41L12.64 0.41C13.54 0.41 13.98 0.82 13.98 1.64C13.98 2.01 13.94 2.38 13.85 2.74C13.76 3.07 13.6 3.55 13.38 4.19C12.98 5.24 12.49 6.5 11.91 7.97C11.37 9.39 10.81 10.86 10.23 12.37C9.65 13.88 9.1 15.35 8.56 16.77C8.03 18.19 7.56 19.42 7.16 20.48C6.31 22.72 5.44 24.92 4.55 27.08C3.7 29.23 2.94 31.29 2.27 33.26C1.6 35.19 1.04 37.02 0.6 38.76C0.2 40.46 0 42.02 0 43.44C0 45.86 0.58 47.63 1.74 48.73C2.9 49.83 4.35 50.38 6.09 50.38C7.51 50.38 8.81 49.99 9.97 49.21C11.13 48.38 12.22 47.38 13.25 46.19C14.32 44.95 15.32 43.64 16.26 42.27C17.24 40.85 18.24 39.54 19.27 38.35C20.3 37.11 21.37 36.1 22.48 35.33C23.64 34.5 24.89 34.09 26.23 34.09C28.37 34.09 30.02 34.73 31.18 36.01C32.34 37.3 33.19 38.76 33.73 40.41C34.08 41.42 34.35 42.38 34.53 43.3C34.75 44.21 34.98 45.04 35.2 45.77C35.29 46.19 35.31 46.62 35.27 47.08C35.27 47.54 35.13 47.95 34.86 48.32C34.64 48.64 34.24 48.91 33.66 49.14C33.12 49.37 32.39 49.48 31.45 49.48L29.17 49.48ZM11.37 21.58C13.92 21.58 15.77 22.17 16.93 23.37C18.09 24.51 18.67 26.39 18.67 29L18.67 36.15C17.69 36.88 16.73 37.66 15.79 38.49C14.85 39.31 13.94 40.07 13.05 40.76C12.15 41.44 11.28 42.02 10.44 42.47C9.59 42.89 8.74 43.09 7.89 43.09C6.64 43.09 5.51 42.7 4.48 41.92C3.45 41.1 2.94 39.75 2.94 37.87C2.94 36.72 3.12 35.42 3.48 33.95C3.88 32.44 4.32 30.93 4.81 29.41C5.35 27.9 5.88 26.46 6.42 25.08C6.96 23.71 7.4 22.54 7.76 21.58L11.37 21.58ZM13.98 4.94C14.52 3.57 15.19 2.68 15.99 2.26C16.84 1.85 17.73 1.62 18.67 1.58L18.67 13.54C18.67 16.24 18.11 18.19 16.99 19.38C15.88 20.57 14 21.17 11.37 21.17L7.89 21.17C8.56 19.38 9.23 17.59 9.9 15.8C10.57 13.97 11.19 12.3 11.77 10.79C12.35 9.27 12.82 7.99 13.18 6.94C13.58 5.88 13.85 5.22 13.98 4.94ZM30.71 29.35C30.8 29.67 30.89 30.06 30.98 30.51C31.07 30.97 31.12 31.41 31.12 31.82C31.16 32.23 31.14 32.62 31.05 32.99C31 33.31 30.87 33.54 30.65 33.68C30.56 33.72 30.4 33.74 30.18 33.74C29.73 33.74 29.2 33.65 28.57 33.47C27.99 33.24 27.19 33.13 26.16 33.13C24.91 33.13 23.71 33.4 22.55 33.95C21.39 34.45 20.23 35.1 19.07 35.87L19.07 29C19.07 26.34 19.6 24.44 20.68 23.3C21.79 22.15 23.66 21.58 26.3 21.58L28.64 21.58C29 22.86 29.33 24.17 29.64 25.5C30 26.78 30.36 28.06 30.71 29.35ZM26.3 21.17C23.75 21.17 21.9 20.55 20.74 19.31C19.63 18.07 19.07 16.15 19.07 13.54L19.07 1.58C20.63 1.62 21.79 1.97 22.55 2.61C23.31 3.25 23.84 4.12 24.16 5.22C24.65 6.96 25.27 9.23 26.03 12.02C26.79 14.82 27.61 17.87 28.51 21.17L26.3 21.17Z" fill="#212529" fill-opacity="1.000000" fill-rule="nonzero"/>
</svg>
