<svg width="32" height="32" viewBox="0 0 32 32" fill="none" xmlns="http://www.w3.org/2000/svg">
<path fill-rule="evenodd" clip-rule="evenodd" d="M22.5838 8.73126C20.8985 7.15571 18.6494 6.29739 16.3223 6.33266C12.0641 6.33266 8.44757 9.14864 7.15808 12.9405C6.47436 14.9276 6.47436 17.0793 7.15808 19.0664H7.16407C8.45954 22.8524 12.0701 25.6684 16.3283 25.6684C18.5264 25.6684 20.4135 25.1173 21.8761 24.1439V24.1399C23.5974 23.0229 24.7729 21.2651 25.1388 19.2781H16.3224V13.117H31.7181C31.91 14.1869 32 15.2804 32 16.368C32 21.2343 30.2258 25.3485 27.1387 28.1351L27.1419 28.1376C24.437 30.5832 20.7245 32 16.3223 32C10.1509 32 4.50715 28.5902 1.73628 23.1875C-0.578764 18.6666 -0.578759 13.3404 1.73629 8.81948C4.50716 3.41088 10.1508 0.00107818 16.3223 0.00107818C20.3767 -0.0459531 24.2931 1.44729 27.2439 4.16335L22.5838 8.73126Z" fill="white"/>
</svg>
